:SAMPLES-PER-SECOND 30
:FULLY-SPECIFIED
:DEGREES
418
root  -36.1759 37.1222 -26.5849 111.176 -89.0159 -81.5371
RightUpLeg  -66.6513 -15.1388 13.1188
RightLeg  32.2114 3.79861 2.3307
RightFoot  6.2311 1.21705 -7.57101
RightToes  0.00048216 0.542163 -0.142577
Spine  69.3028 -5.53392 7.28902
Spine1  3.39613 0.737151 -6.41157
HEad  -39.4767 -3.31081 -4.44819
LeftShoulder1  7.34096 -26.269 -17.8709
LeftArm  -70.3596 -67.4343 12.9864
LeftForeArm  -4.50488 -15.1763 -1.76254
LeftHand  -0.25398 0.0180481 5.50724
RightShoulder  4.14465 16.2583 14.0612
RightArm  -60.5284 48.6903 -16.3405
RightForeArm  -28.868 12.3885 4.3575
RightHand  1.15952 8.38268 9.22653
LeftUpLeg  -67.2516 16.535 -14.0831
LeftLeg  39.6697 -2.7504 -2.06145
LeftFoot  -0.715875 -0.73219 7.90337
LeftToes  1.06243e-005 4.65856e-005 -8.18503e-006
419
root  -36.7353 37.0338 -27.0458 85.784 -88.689 -54.0054
RightUpLeg  -69.0382 -14.6291 14.4008
RightLeg  34.2046 3.2293 2.1055
RightFoot  4.43486 1.15631 -8.10434
RightToes  0.00048216 0.542163 -0.142577
Spine  70.9591 -5.55926 7.32748
Spine1  1.97652 0.979876 -7.14944
HEad  -40.0647 -3.73443 -3.69727
LeftShoulder1  6.77024 -26.4717 -15.6305
LeftArm  -76.2812 -67.1321 17.603
LeftForeArm  -3.38932 -15.8155 -1.50574
LeftHand  -0.25398 0.0180481 5.50724
RightShoulder  4.21551 16.4509 14.2264
RightArm  -64.6039 48.5495 -19.8621
RightForeArm  -26.7029 11.5068 3.46835
RightHand  1.36424 9.59839 9.9741
LeftUpLeg  -69.2084 15.854 -12.9724
LeftLeg  40.8887 -2.49844 -1.92894
LeftFoot  -1.54323 -0.545108 6.46159
LeftToes  1.06243e-005 4.65856e-005 -8.18503e-006
420
root  -37.2688 36.9753 -27.4666 76.0768 -88.249 -42.3596
RightUpLeg  -71.0023 -14.2955 15.9321
RightLeg  35.6885 2.96373 2.02333
RightFoot  3.1798 1.17347 -9.01757
RightToes  0.00048216 0.542163 -0.142577
Spine  72.2783 -5.50746 7.27525
Spine1  1.09851 1.18768 -7.81176
HEad  -40.4929 -4.15003 -2.9563
LeftShoulder1  6.22143 -26.537 -13.5868
LeftArm  -81.0218 -66.5312 21.4202
LeftForeArm  -2.24271 -16.573 -1.53564
LeftHand  -0.25398 0.0180481 5.50724
RightShoulder  4.28162 16.657 14.349
RightArm  -67.9321 48.2767 -22.6079
RightForeArm  -24.5122 10.6964 2.59109
RightHand  1.64987 10.9806 11.0658
LeftUpLeg  -70.7824 15.2873 -11.9476
LeftLeg  41.7035 -2.0699 -1.58304
LeftFoot  -2.27468 -0.394936 5.15269
LeftToes  1.06243e-005 4.65856e-005 -8.18503e-006
421
root  -37.7857 36.9398 -27.8438 65.3512 -87.8267 -29.7922
RightUpLeg  -72.6878 -14.2693 17.4398
RightLeg  36.7914 2.74123 1.93089
RightFoot  1.95119 1.22496 -10.3633
RightToes  0.00048216 0.542163 -0.142577
Spine  73.0981 -5.56029 7.27033
Spine1  0.565675 1.17851 -8.21846
HEad  -40.9962 -4.48887 -2.30822
LeftShoulder1  5.86121 -26.2657 -12.476
LeftArm  -85.6419 -66.1285 25.0778
LeftForeArm  -1.04579 -17.52 -1.8491
LeftHand  -0.25398 0.0180481 5.50724
RightShoulder  4.07107 16.4552 13.4224
RightArm  -70.7561 48.0918 -23.3222
RightForeArm  -22.7203 10.7432 1.83244
RightHand  1.82242 12.1863 11.3812
LeftUpLeg  -72.1454 14.7418 -11.3545
LeftLeg  42.2264 -1.57515 -1.13653
LeftFoot  -2.86758 -0.283435 4.06002
LeftToes  1.06243e-005 4.65856e-005 -8.18503e-006
422
root  -38.2897 36.9442 -28.1715 57.0679 -87.4106 -19.7653
RightUpLeg  -74.0904 -14.2782 18.5729
RightLeg  37.5626 2.45742 1.75408
RightFoot  0.390083 1.12212 -10.8358
RightToes  0.00048216 0.542163 -0.142577
Spine  73.6217 -5.63843 7.23593
Spine1  0.384258 1.03028 -8.33752
HEad  -41.7799 -4.6389 -1.80203
LeftShoulder1  5.58156 -25.7025 -11.8517
LeftArm  -90.8179 -65.7992 28.5024
LeftForeArm  0.61373 -18.652 -2.31538
LeftHand  -0.25398 0.0180481 5.50724
RightShoulder  3.68107 15.8626 11.8994
RightArm  -73.6838 48.226 -23.02
RightForeArm  -21.1149 11.7813 1.39287
RightHand  1.72782 12.6786 10.4436
LeftUpLeg  -73.255 14.3384 -11.0773
LeftLeg  42.3814 -1.20208 -0.779985
LeftFoot  -3.27507 -0.202623 3.15586
LeftToes  1.06243e-005 4.65856e-005 -8.18503e-006
423
root  -38.7678 36.9989 -28.4554 52.4996 -87.005 -13.728
RightUpLeg  -74.9978 -14.192 19.2972
RightLeg  37.9466 2.19931 1.56368
RightFoot  -0.908726 0.917076 -10.0752
RightToes  0.00048216 0.542163 -0.142577
Spine  74.0856 -5.60999 7.02666
Spine1  0.545023 0.871467 -8.2317
HEad  -42.5811 -4.57565 -1.32031
LeftShoulder1  5.23424 -25.0902 -10.9762
LeftArm  -95.8434 -65.2161 31.0045
LeftForeArm  3.23424 -19.79 -2.79399
LeftHand  -0.25398 0.0180481 5.50724
RightShoulder  3.43171 15.4098 10.9495
RightArm  -76.415 48.57 -23.4184
RightForeArm  -19.5441 13.0063 1.38388
RightHand  1.45842 12.3504 8.90848
LeftUpLeg  -73.8722 14.1447 -10.8506
LeftLeg  42.0652 -1.05495 -0.626297
LeftFoot  -3.52878 -0.146882 2.46364
LeftToes  1.06243e-005 4.65856e-005 -8.18503e-006
424
root  -39.2044 37.0835 -28.6942 49.5212 -86.6086 -9.61144
RightUpLeg  -75.4035 -14.0711 19.7864
RightLeg  37.9563 1.96031 1.36417
RightFoot  -1.44327 0.810565 -9.44674
RightToes  0.00048216 0.542163 -0.142577
Spine  74.4781 -5.54502 6.72428
Spine1  0.747857 0.733388 -8.11359
HEad  -42.9077 -4.44007 -0.751853
LeftShoulder1  4.88335 -24.6338 -9.93581
LeftArm  -99.2979 -64.4894 32.4272
LeftForeArm  6.31606 -20.6917 -3.18534
LeftHand  -0.25398 0.0180481 5.50724
RightShoulder  3.37281 15.2891 10.7298
RightArm  -77.9227 48.9052 -24.447
RightForeArm  -18.5608 13.8217 1.65072
RightHand  1.1713 11.5272 7.43609
LeftUpLeg  -73.986 14.0237 -10.5838
LeftLeg  41.3978 -1.05566 -0.60692
LeftFoot  -3.82683 -0.107608 1.99001
LeftToes  1.06243e-005 4.65856e-005 -8.18503e-006
425
root  -39.5943 37.1784 -28.8806 46.6945 -86.3289 -5.81524
RightUpLeg  -75.5778 -13.8959 20.084
RightLeg  37.7075 1.66885 1.10943
RightFoot  -1.6001 0.838625 -9.93505
RightToes  0.00048216 0.542163 -0.142577
Spine  74.646 -5.54136 6.48313
Spine1  0.845126 0.589906 -8.16002
HEad  -42.7378 -4.31391 -0.14626
LeftShoulder1  4.62197 -24.3361 -9.10608
LeftArm  -100.837 -63.911 33.3053
LeftForeArm  8.5318 -21.2514 -3.43761
LeftHand  -0.25398 0.0180481 5.50724
RightShoulder  3.29203 15.1692 10.3768
RightArm  -78.3298 49.1926 -24.8855
RightForeArm  -18.6033 14.4278 2.00475
RightHand  0.871095 10.6349 5.74295
LeftUpLeg  -73.8471 13.8329 -10.3389
LeftLeg  40.5662 -1.05932 -0.586137
LeftFoot  -4.22519 -0.0733481 1.58921
LeftToes  1.06243e-005 4.65856e-005 -8.18503e-006
426
root  -39.9399 37.283 -29.0225 43.6068 -86.2737 -1.86393
RightUpLeg  -75.6402 -13.6145 20.0624
RightLeg  37.3358 1.34956 0.831575
RightFoot  -1.89436 0.872937 -10.6762
RightToes  0.00048216 0.542163 -0.142577
Spine  74.5601 -5.54199 6.30071
Spine1  1.08558 0.467035 -8.31465
HEad  -42.4827 -4.15697 0.384905
LeftShoulder1  4.41638 -24.1175 -8.42883
LeftArm  -101.401 -63.5366 33.8392
LeftForeArm  9.48653 -21.5916 -3.60867
LeftHand  -0.25398 0.0180481 5.50724
RightShoulder  3.11887 14.9525 9.56565
RightArm  -78.8939 49.3702 -24.5272
RightForeArm  -19.0671 15.188 2.3348
RightHand  0.52514 9.9007 3.4515
LeftUpLeg  -73.5727 13.5681 -10.1102
LeftLeg  39.6538 -0.963991 -0.475638
LeftFoot  -4.52204 -0.0375589 1.08909
LeftToes  1.06243e-005 4.65856e-005 -8.18503e-006
427
root  -40.2405 37.3932 -29.1337 40.5229 -86.3846 1.79868
RightUpLeg  -75.447 -13.2804 19.6939
RightLeg  36.9782 1.05414 0.580267
RightFoot  -2.22884 0.837831 -10.6587
RightToes  0.00048216 0.542163 -0.142577
Spine  74.3819 -5.45494 6.13446
Spine1  1.57033 0.449563 -8.39815
HEad  -42.3246 -4.0191 0.774215
LeftShoulder1  4.23903 -23.9585 -7.81616
LeftArm  -101.514 -63.3755 33.7774
LeftForeArm  10.1864 -21.8977 -3.75924
LeftHand  -0.25398 0.0180481 5.50724
RightShoulder  3.00323 14.8475 8.97187
RightArm  -80.2251 49.4076 -24.0891
RightForeArm  -18.5294 16.1565 2.62896
RightHand  0.179414 9.25076 0.907488
LeftUpLeg  -73.0634 13.3018 -9.77795
LeftLeg  38.7712 -0.706352 -0.231539
LeftFoot  -4.63603 -0.00146831 0.503056
LeftToes  1.06243e-005 4.65856e-005 -8.18503e-006
428
root  -40.493 37.4903 -29.2095 38.1192 -86.5637 4.38749
RightUpLeg  -74.9651 -12.9951 19.176
RightLeg  36.7348 0.806832 0.375851
RightFoot  -2.37696 0.790689 -10.2538
RightToes  0.00048216 0.542163 -0.142577
Spine  74.2761 -5.3032 6.04721
Spine1  1.95348 0.556207 -8.3292
HEad  -42.0867 -4.05936 0.975544
LeftShoulder1  4.13507 -23.8575 -7.45797
LeftArm  -100.605 -63.5622 33.1613
LeftForeArm  11.5386 -22.1336 -3.83437
LeftHand  -0.25398 0.0180481 5.50724
RightShoulder  2.98877 14.7723 8.95913
RightArm  -81.574 49.567 -23.7227
RightForeArm  -16.694 17.1605 2.96726
RightHand  -0.14499 8.54138 -1.7051
LeftUpLeg  -72.323 13.0781 -9.30604
LeftLeg  38.1116 -0.300678 0.121651
LeftFoot  -4.77354 0.0310377 -0.0402711
LeftToes  1.06243e-005 4.65856e-005 -8.18503e-006
429
root  -40.7024 37.5662 -29.2385 36.0209 -86.8115 6.44977
RightUpLeg  -74.4169 -12.84 18.7343
RightLeg  36.583 0.668451 0.26285
RightFoot  -2.46672 0.77448 -10.1581
RightToes  0.00048216 0.542163 -0.142577
Spine  74.1918 -5.16614 6.10998
Spine1  2.07548 0.711245 -8.16631
HEad  -41.7138 -4.34352 0.983641
LeftShoulder1  4.05471 -23.7995 -7.16638
LeftArm  -98.6748 -64.0986 32.2939
LeftForeArm  13.1776 -21.9909 -3.69068
LeftHand  -0.25398 0.0180481 5.50724
RightShoulder  2.94197 14.523 8.92205
RightArm  -81.97 49.9853 -23.0794
RightForeArm  -15.5252 17.9054 3.31362
RightHand  -0.54785 8.09552 -5.17491
LeftUpLeg  -71.5325 12.8707 -8.84051
LeftLeg  37.7043 0.140671 0.489744
LeftFoot  -5.0586 0.0567609 -0.477538
LeftToes  1.06243e-005 4.65856e-005 -8.18503e-006
